<svg xmlns="http://www.w3.org/2000/svg" viewBox="0 0 1596.31 412.72"><title>meno</title><g id="Layer_3" data-name="Layer 3"><path d="M0,24.2H113.3c31.9,0,51.7,21.34,51.7,47.08,0,31.24-22,46.86-51.7,46.86H44.44V178.2H0ZM107.8,82.5c8.14,0,12.76-3.08,12.76-11.22s-4.62-11.44-12.76-11.44H44.22V82.5Z"/><path d="M169.4,152.68c0-24.2,28.82-35.42,88.44-39.16,0-6.16-8.14-10.34-20.24-10.34-17.16,0-39.6,4.84-54.34,11.22V76.56C201.74,69.74,227,64.68,246.4,64.68c40.92,0,55.88,20.68,55.88,51.48v62H260L264.22,141H262c-7,27.94-18,40.7-51.7,40.7C194,181.72,169.4,178.2,169.4,152.68Zm88.44-22c-25.3,1.54-42.68,4.84-42.68,13.2,0,5.06,7.26,7.92,15.84,7.92C243.32,151.8,258.28,145.64,257.84,130.68Z"/><path d="M323.62,138.6V100.76H311.08V68.2H328V41.8l40-4.4V68.2h21.78v32.56H368.06V132c0,13.64,0,18,13,18,2.42,0,5.28-.22,8.8-.44V176a120.9,120.9,0,0,1-33.22,4.4C328,180.4,323.62,170.06,323.62,138.6Z"/><path d="M405.24,68.2h47.52l-4.4,40.92h2.2c5.72-31.68,22.66-44.44,57.2-44.44v37.84c-39.6,0-58.08,3.3-58.08,38.72v37H405.24Z"/><path d="M507.32,68.2h44.44v110H507.32Zm17.16-36.08L587.62,0V31.24L524.48,58.52Z"/><path d="M570,123.2c0-35.42,27.06-58.52,68.64-58.52,19.8,0,34.54,4,52.14,11.88V114c-12.54-7.48-27.72-13.64-46.42-13.64-21.78,0-32.12,9.46-32.12,22.88s11,22.88,32.78,22.88c18.48,0,33.66-5.94,45.76-13.42v37.18c-17.82,7.92-30.58,11.88-52.36,11.88C598.62,181.72,570,158.4,570,123.2Z"/><path d="M706.86,36.52c0-16.5,9-22.66,25.74-22.66S758.78,20,758.78,36.52,750,59.18,732.6,59.18C715.88,59.18,706.86,53,706.86,36.52Zm4,31.68h44.44v110H710.82Z"/><path d="M770.44,152.68c0-24.2,28.81-35.42,88.44-39.16,0-6.16-8.14-10.34-20.24-10.34-17.16,0-39.6,4.84-54.35,11.22V76.56c18.48-6.82,43.79-11.88,63.15-11.88,40.92,0,55.88,20.68,55.88,51.48v62H861.08L865.26,141h-2.2c-7,27.94-18,40.7-51.71,40.7C795.07,181.72,770.44,178.2,770.44,152.68Zm88.44-22c-25.3,1.54-42.69,4.84-42.69,13.2,0,5.06,7.27,7.92,15.85,7.92C844.35,151.8,859.32,145.64,858.88,130.68Z"/><path d="M0,255.2H113.3c31.9,0,51.7,21.34,51.7,47.08,0,31.24-22,46.86-51.7,46.86H44.44V409.2H0Zm107.8,58.3c8.14,0,12.76-3.08,12.76-11.22s-4.62-11.44-12.76-11.44H44.22V313.5Z"/><path d="M169.4,354.2c0-35.2,28.16-58.52,70.62-58.52S310.64,319,310.64,354.2,282.48,412.72,240,412.72,169.4,389.4,169.4,354.2Zm99,0c0-13.64-11.44-22.88-28.38-22.88s-28.38,9.24-28.38,22.88,11.44,22.88,28.38,22.88S268.4,367.84,268.4,354.2Z"/><path d="M332,369.6V331.76H319.44V299.2h16.94V272.8l40-4.4v30.8H398.2v32.56H376.42V363c0,13.64,0,18,13,18,2.42,0,5.28-.22,8.8-.44V407A120.9,120.9,0,0,1,365,411.4C336.38,411.4,332,401.06,332,369.6Z"/><path d="M409.2,383.68c0-24.2,28.82-35.42,88.44-39.16,0-6.16-8.14-10.34-20.24-10.34-17.16,0-39.6,4.84-54.34,11.22V307.56c18.48-6.82,43.78-11.88,63.14-11.88,40.92,0,55.88,20.68,55.88,51.48v62H499.84L504,372h-2.2c-7,27.94-18,40.7-51.7,40.7C433.84,412.72,409.2,409.2,409.2,383.68Zm88.44-22c-25.3,1.54-42.68,4.84-42.68,13.2,0,5.06,7.26,7.92,15.84,7.92C483.12,382.8,498.08,376.64,497.64,361.68Z"/><path d="M559.68,299.2H607.2l-4.4,45.32H605c5.72-36.08,20.46-48.84,55.22-48.84,30.8.44,44.22,11,44.22,65.78V409.2H660v-44c0-28.82-7.26-36.08-25.3-36.08-17.82,0-30.58,18.7-30.58,43.12v37H559.68Z"/><path d="M790.68,295.68c19.8,0,34.54,4,52.14,11.88V345c-12.54-7.48-27.72-13.64-46.42-13.64-21.78,0-32.12,9.46-32.12,22.88s11,22.88,32.78,22.88c18.48,0,33.66-5.94,45.76-13.42v37.18c-17.82,7.92-30.58,11.88-52.36,11.88-39.82,0-68.42-23.32-68.42-58.52C722,318.78,749.1,295.68,790.68,295.68Zm63.14-67.1v17.6L790.68,287.1l-63.14-40.92v-17.6l63.14,36.08Z"/><path d="M858.22,354.2c0-35.2,28.16-58.52,70.62-58.52S999.46,319,999.46,354.2s-28.16,58.52-70.62,58.52S858.22,389.4,858.22,354.2Zm99,0c0-13.64-11.44-22.88-28.38-22.88s-28.38,9.24-28.38,22.88,11.44,22.88,28.38,22.88S957.22,367.84,957.22,354.2Z"/><path d="M1017.06,255.2h44.44v77.88l34.32-33.88H1157l-41.8,37.4,45.32,72.6h-55.22l-24.2-42.46-19.58,17.38V409.2h-44.44Z"/><path d="M1160.49,354.2c0-35.2,28.16-58.52,70.62-58.52s70.62,23.32,70.62,58.52-28.16,58.52-70.62,58.52S1160.49,389.4,1160.49,354.2Zm99,0c0-13.64-11.44-22.88-28.38-22.88s-28.38,9.24-28.38,22.88,11.44,22.88,28.38,22.88S1259.49,367.84,1259.49,354.2Z"/><path d="M1298.43,299.2h48.18l36.52,69.3,36.52-69.3h48.18l-58.08,110h-53.24Z"/><path d="M1462.33,383.68c0-24.2,28.82-35.42,88.44-39.16,0-6.16-8.14-10.34-20.24-10.34-17.16,0-39.6,4.84-54.34,11.22V307.56c18.48-6.82,43.78-11.88,63.14-11.88,40.92,0,55.88,20.68,55.88,51.48v62H1553l4.18-37.18H1555c-7,27.94-18,40.7-51.7,40.7C1487,412.72,1462.33,409.2,1462.33,383.68Zm88.44-22c-25.3,1.54-42.68,4.84-42.68,13.2,0,5.06,7.26,7.92,15.84,7.92C1536.25,382.8,1551.21,376.64,1550.77,361.68Zm-17.6-98.56L1596.31,231v31.24l-63.14,27.28Z"/></g></svg>