<?xml version="1.0" encoding="utf-8"?>
<!-- Generator: Adobe Illustrator 23.0.0, SVG Export Plug-In . SVG Version: 6.00 Build 0)  -->
<svg version="1.1" id="Layer_1" xmlns="http://www.w3.org/2000/svg" xmlns:xlink="http://www.w3.org/1999/xlink" x="0px" y="0px"
	 viewBox="0 0 1073 329.45" style="enable-background:new 0 0 1073 329.45;" xml:space="preserve">
<image style="display:none;overflow:visible;" width="3509" height="1779" xlink:href="pucpuc-01.png"  transform="matrix(0.24 0 0 0.24 95.0765 -40.4835)">
</image>
<g>
	<g>
		<path d="M0,2.48h97.66c28.33,0,45.92,15.06,45.92,33.22c0,22.04-19.54,33.06-45.92,33.06H27.73v42.37H0V2.48z M92.78,50.6
			c16.02,0,23.05-4.35,23.05-14.9s-7.03-15.06-23.05-15.06H27.54V50.6H92.78z"/>
		<path d="M162.74,53.39V2.48h27.73v55.56c0,24.83,13.87,36.64,43.96,36.64c29.88,0,43.95-11.8,43.95-36.64V2.48h27.73v50.91
			c0,46.26-26.96,60.22-71.68,60.22C189.7,113.61,162.74,99.65,162.74,53.39z"/>
		<path d="M328.61,56.81C328.61,22.66,361.63,0,411.05,0c49.41,0,82.43,19.87,82.43,49.82h-28.13
			c-1.17-19.87-22.86-31.36-54.3-31.36c-32.83,0-54.71,14.28-54.71,38.34c0,24.05,21.88,38.18,54.71,38.18
			c31.63,0,53.32-11.33,54.3-31.19h28.13c0,29.95-33.02,49.82-82.43,49.82C361.63,113.61,328.61,90.95,328.61,56.81z"/>
	</g>
</g>
<g>
	<g>
		<path d="M579.53,218.32h97.68c28.32,0,45.9,15.06,45.9,33.22c0,22.04-19.54,33.06-45.9,33.06h-69.94v42.37h-27.73V218.32z
			 M672.31,266.44c16.02,0,23.05-4.35,23.05-14.89c0-10.56-7.03-15.06-23.05-15.06h-65.24v29.95H672.31z"/>
		<path d="M742.27,269.24v-50.92H770v55.56c0,24.84,13.87,36.64,43.96,36.64c29.88,0,43.95-11.8,43.95-36.64v-55.56h27.73v50.92
			c0,46.26-26.95,60.21-71.68,60.21S742.27,315.5,742.27,269.24z"/>
		<path d="M908.13,272.65c0-34.15,33.02-56.8,82.43-56.8c49.42,0,82.44,19.87,82.44,49.82h-28.13
			c-1.18-19.87-22.86-31.35-54.31-31.35c-32.8,0-54.68,14.28-54.68,38.33s21.88,38.18,54.68,38.18c31.65,0,53.34-11.33,54.31-31.2
			H1073c0,29.95-33.02,49.82-82.44,49.82C941.15,329.45,908.13,306.8,908.13,272.65z"/>
	</g>
</g>
</svg>
